<?xml version="1.0" standalone="no"?>
<!DOCTYPE svg PUBLIC "-//W3C//DTD SVG 20010904//EN"
 "http://www.w3.org/TR/2001/REC-SVG-20010904/DTD/svg10.dtd">
<svg version="1.0" xmlns="http://www.w3.org/2000/svg"
 width="649.000000pt" height="649.000000pt" viewBox="0 0 649.000000 649.000000"
 preserveAspectRatio="xMidYMid meet">

<g transform="translate(0.000000,649.000000) scale(0.100000,-0.100000)"
fill="#000000" stroke="none">
<path d="M3025 6484 c-972 -77 -1821 -545 -2398 -1323 -264 -356 -462 -799
-556 -1247 -53 -252 -65 -373 -65 -669 0 -296 12 -417 65 -669 169 -805 638
-1514 1319 -1993 675 -475 1538 -673 2365 -542 475 75 957 268 1340 538 214
150 464 378 623 566 414 492 657 1046 749 1705 24 175 24 615 0 790 -92 659
-334 1211 -749 1705 -110 131 -345 355 -486 465 -460 356 -987 575 -1582 655
-110 15 -519 27 -625 19z m272 -88 c3 -3 -1009 -1794 -1069 -1893 l-19 -32
-57 34 c-70 42 -217 99 -295 115 -54 11 -58 14 -53 35 3 13 26 155 52 315 25
160 63 379 84 485 21 107 58 312 80 457 23 144 46 266 52 270 7 3 86 31 177
61 177 59 374 105 561 132 178 26 470 38 487 21z m303 -12 c379 -43 712 -142
1049 -310 157 -78 317 -173 424 -251 l48 -36 -43 -23 c-24 -14 -75 -59 -114
-101 l-71 -77 -84 3 c-101 3 -163 -10 -247 -51 -103 -51 -290 -240 -345 -350
-16 -30 -40 -54 -82 -81 -33 -21 -222 -142 -420 -269 -482 -308 -1091 -682
-1148 -704 -8 -3 -34 23 -66 65 -28 38 -92 107 -141 153 l-89 83 29 47 c16 25
119 210 228 410 110 199 246 444 302 543 83 146 503 857 556 943 18 27 33 27
214 6z m-1620 -254 c0 -6 -27 -151 -59 -323 -33 -172 -71 -395 -86 -497 -21
-149 -74 -458 -111 -636 l-6 -31 -74 5 c-79 5 -230 -11 -313 -33 -49 -13 -51
-13 -56 8 -2 12 -53 219 -112 460 l-109 439 63 59 c125 116 316 260 478 360
74 45 365 198 378 199 4 0 7 -5 7 -10z m3314 -479 c113 -96 327 -317 420 -433
190 -238 388 -585 488 -858 51 -139 120 -371 113 -378 -3 -3 -23 0 -46 7 -34
10 -44 10 -57 -2 -30 -26 -80 -47 -111 -47 -17 0 -55 9 -86 21 -103 39 -112
-9 -10 -51 31 -13 54 -28 52 -34 -48 -119 -68 -156 -109 -200 -46 -50 -47 -50
-48 -24 0 21 8 31 30 43 43 22 28 37 -29 29 -31 -4 -58 -1 -81 8 -25 10 -44
12 -65 6 -16 -5 -65 -7 -107 -4 -80 6 -100 -4 -53 -26 14 -6 25 -14 25 -18 0
-13 -98 -50 -113 -44 -9 3 -23 24 -32 46 -18 46 -10 63 33 73 15 3 41 17 57
31 l30 25 -55 -5 c-42 -4 -62 -2 -79 10 -20 15 -30 15 -76 4 -46 -11 -60 -11
-105 4 -49 16 -53 16 -78 0 l-27 -18 59 -26 59 -27 34 -93 c18 -51 32 -95 30
-96 -2 -2 -29 13 -61 32 l-57 36 22 24 c16 17 20 27 12 35 -17 17 -89 22 -137
10 -36 -9 -54 -8 -88 3 -79 28 -78 -6 2 -61 64 -45 74 -76 25 -81 -30 -3 -96
26 -102 45 -2 6 8 14 22 17 22 6 25 9 15 21 -7 8 -16 12 -22 9 -5 -3 -31 -1
-58 6 -40 10 -53 9 -77 -3 -27 -15 -27 -16 -7 -24 12 -4 40 -31 63 -60 27 -35
57 -59 91 -75 l50 -23 -47 -12 c-71 -19 -127 -16 -178 9 -24 12 -48 18 -52 14
-14 -14 15 -42 78 -72 l64 -31 -44 -22 c-62 -32 -139 -38 -197 -16 -55 21
-170 18 -184 -5 -22 -36 -221 52 -337 149 -122 102 -153 171 -153 344 0 112
20 198 66 294 42 89 138 210 203 259 l48 36 -33 49 c-108 161 -126 447 -39
621 76 150 198 290 302 346 96 50 163 65 272 60 l95 -5 79 83 c77 81 156 134
200 134 11 0 56 -31 101 -69z m-4230 -421 c91 -351 158 -643 149 -650 -4 -4
-28 -15 -53 -24 -62 -24 -135 -67 -226 -132 -42 -30 -78 -54 -79 -52 -114 142
-345 443 -345 449 0 16 110 187 187 292 127 171 291 354 304 339 4 -4 32 -104
63 -222z m3082 -227 c-16 -40 -24 -158 -15 -224 9 -77 38 -183 70 -256 l20
-46 -69 -71 c-166 -172 -235 -343 -231 -570 l1 -111 -33 -7 c-19 -4 -126 -12
-239 -18 -113 -6 -257 -17 -320 -25 -63 -8 -164 -21 -225 -29 -60 -8 -171 -18
-246 -22 l-136 -7 -6 59 c-9 84 -40 196 -83 299 -21 49 -33 90 -28 92 21 7
326 185 464 270 80 49 276 175 435 278 392 256 628 405 639 405 4 0 5 -8 2
-17z m-3507 -475 c88 -113 161 -210 161 -216 0 -5 -10 -17 -22 -28 -43 -38
-140 -179 -179 -260 l-40 -83 -52 23 c-73 33 -291 138 -296 142 -7 6 20 96 65
223 53 145 184 425 194 414 4 -5 80 -101 169 -215z m1176 13 c413 -85 730
-411 810 -833 21 -113 22 -112 -29 -80 -24 16 -95 51 -158 78 -98 43 -121 49
-178 48 -119 -1 -383 -105 -555 -218 -38 -25 -77 -46 -86 -46 -9 0 -49 25 -90
55 -93 70 -253 149 -344 169 -38 9 -137 32 -219 52 -172 41 -207 40 -307 -7
-34 -16 -64 -27 -67 -24 -8 8 27 127 62 208 76 174 238 360 400 461 96 61 227
114 335 136 118 25 307 26 426 1z m-1454 -583 c163 -78 170 -83 165 -107 -3
-15 -12 -60 -21 -101 -9 -41 -21 -80 -26 -87 -12 -13 -311 -235 -359 -266
l-33 -21 7 105 c12 165 77 559 93 559 2 0 80 -37 174 -82z m5949 -29 c0 -7
-25 -42 -55 -80 -30 -37 -55 -71 -55 -75 0 -6 90 2 140 13 53 12 3 -16 -72
-41 -43 -14 -88 -30 -100 -37 -27 -14 -178 -159 -178 -170 0 -5 9 -13 20 -19
15 -8 27 -4 62 20 30 20 60 31 98 35 61 6 64 8 -65 -49 -49 -21 -93 -52 -145
-101 -42 -38 -92 -79 -113 -90 -35 -18 -53 -42 -42 -53 3 -3 29 2 59 11 29 9
73 17 97 17 128 1 278 51 379 125 26 19 50 35 54 35 14 0 4 -34 -19 -64 -14
-18 -25 -36 -25 -39 0 -4 11 -7 25 -7 23 0 25 -4 25 -40 l0 -40 -62 0 c-42 0
-87 -9 -133 -26 -38 -14 -97 -34 -130 -45 -33 -11 -78 -27 -100 -35 -57 -20
-195 -113 -206 -138 -26 -65 -64 -455 -56 -585 4 -72 11 -95 45 -165 48 -94
118 -178 173 -206 25 -13 58 -20 96 -20 57 0 57 0 33 -17 -15 -11 -45 -18 -75
-19 -52 -1 -115 -12 -115 -20 0 -20 28 -48 71 -70 48 -24 50 -26 35 -43 -15
-17 -15 -20 2 -42 26 -35 42 -76 42 -107 l-1 -27 -22 30 -22 30 -6 -40 c-6
-43 -10 -37 -28 39 -17 72 -40 97 -132 147 -46 24 -103 63 -128 87 -33 31 -47
39 -53 30 -13 -21 -9 -71 11 -160 11 -46 22 -103 25 -128 5 -41 4 -40 -15 20
-27 86 -46 130 -59 130 -5 0 -10 -11 -10 -25 0 -89 -61 -270 -109 -325 -18
-21 -16 -14 8 36 39 78 55 153 48 226 -8 95 -41 112 -114 59 -42 -31 -67 -61
-108 -132 -19 -34 -25 -39 -30 -27 -5 13 -20 0 -65 -56 -63 -80 -80 -95 -80
-73 0 20 111 184 165 245 26 29 44 52 40 52 -7 0 -47 -24 -165 -99 -14 -9 26
39 89 106 79 84 123 124 143 128 35 8 32 29 -5 33 -30 4 -56 -9 -197 -94 -58
-35 -135 -75 -173 -89 -71 -26 -115 -34 -60 -10 17 7 60 35 95 62 35 26 97 66
138 87 41 21 88 50 103 65 63 57 113 197 142 392 20 143 19 277 -5 439 -24
162 -35 179 -146 209 -115 32 -122 36 -117 63 4 22 -3 28 -64 55 -64 29 -78
31 -228 38 -173 7 -215 16 -150 33 191 50 218 53 237 22 13 -20 48 -28 48 -11
0 4 -11 25 -25 45 -14 20 -25 39 -25 41 0 2 16 -5 35 -16 23 -14 64 -23 129
-29 103 -10 147 -27 225 -86 50 -39 61 -41 61 -16 0 32 -61 92 -187 182 -115
82 -144 107 -92 80 16 -9 21 -7 28 13 8 20 15 23 40 19 30 -4 30 -4 21 27 -10
37 -10 36 71 -25 71 -54 117 -107 124 -142 15 -68 39 -74 43 -11 3 48 -30 153
-68 215 -11 17 -29 58 -40 89 -22 64 -16 85 25 85 19 0 23 -7 27 -45 3 -25 17
-63 31 -84 15 -22 29 -52 32 -68 12 -54 14 -55 45 -20 16 19 58 49 92 67 70
37 69 34 -18 -62 -69 -76 -76 -118 -30 -206 11 -21 15 -51 14 -91 -4 -91 12
-96 57 -15 21 36 66 98 101 136 64 69 83 109 85 178 1 19 4 46 9 60 l7 25 6
-25 c4 -14 8 -41 9 -60 2 -22 9 -36 18 -37 12 -2 165 187 211 259 4 6 15 5 28
-4 20 -12 25 -10 59 32 60 73 109 120 126 120 9 0 16 -5 16 -11z m60 -216 c0
-10 3 -29 7 -42 l6 -24 -71 6 c-61 5 -74 3 -93 -14 -23 -20 -64 -25 -74 -9 -8
14 37 40 124 71 91 33 101 34 101 12z m-5452 -14 c294 -31 374 -73 979 -510
459 -333 487 -355 1035 -851 l207 -187 -82 -27 c-92 -30 -200 -82 -265 -126
l-43 -29 -322 -9 c-177 -5 -378 -12 -447 -15 -245 -11 -1179 -35 -1388 -35
l-213 0 -29 65 c-107 239 -192 537 -235 830 -17 115 -36 434 -28 466 3 10 80
74 172 142 224 167 219 164 356 234 133 69 139 70 303 52z m1535 -64 c211
-107 574 -310 797 -443 229 -138 721 -440 729 -448 3 -2 -2 -10 -11 -17 -8 -6
-116 -95 -239 -196 -300 -247 -365 -295 -440 -320 -35 -11 -71 -21 -80 -21 -9
0 -57 37 -106 81 -48 45 -187 165 -307 267 -120 102 -271 232 -335 290 -131
118 -180 157 -336 266 -125 88 -434 327 -434 338 -1 9 170 123 230 154 77 39
199 85 264 100 94 21 145 12 268 -51z m3333 -32 c-4 -53 -14 -110 -22 -125
-16 -31 -132 -120 -149 -115 -5 2 -18 20 -29 41 -23 47 -20 55 69 170 64 83
108 126 128 126 6 0 7 -34 3 -97z m-1824 20 c23 -54 82 -122 147 -171 130 -97
264 -150 411 -162 70 -6 115 -16 172 -39 73 -30 83 -31 219 -31 78 0 140 -3
136 -6 -16 -16 -200 -54 -264 -54 -40 0 -73 -4 -73 -8 0 -23 30 -32 103 -32
l78 0 -3 -37 c-2 -28 -7 -37 -18 -34 -8 3 -26 4 -40 3 -14 -1 -92 -6 -175 -11
-109 -6 -165 -14 -205 -28 -88 -32 -315 -147 -358 -182 -22 -17 -49 -31 -61
-31 -25 0 -339 185 -442 261 -109 81 -186 127 -364 219 -180 93 -239 127 -375
214 l-95 61 135 12 c74 6 234 19 355 28 121 9 306 25 410 35 105 10 214 18
243 19 48 1 53 -1 64 -26z m2426 -60 c-3 -34 -11 -44 -73 -91 -90 -67 -159
-94 -260 -99 l-80 -4 45 41 c42 38 327 190 358 190 9 0 12 -12 10 -37z m-1195
-148 c27 -15 45 -31 40 -35 -11 -11 -208 22 -207 35 1 6 18 20 39 32 33 18 41
19 59 9 12 -7 43 -25 69 -41z m1182 -195 l28 -11 -6 -147 c-7 -165 -33 -353
-71 -517 -29 -126 -84 -317 -94 -326 -14 -13 -138 12 -189 38 -29 14 -90 60
-136 102 -46 42 -97 86 -113 97 -28 20 -29 24 -27 94 4 120 33 337 53 403 11
34 34 79 51 101 33 40 136 96 175 96 31 0 101 26 135 51 56 39 123 46 194 19z
m-1195 -125 c82 -17 134 -42 172 -82 24 -24 30 -45 48 -162 11 -74 17 -138 13
-142 -5 -5 -79 41 -164 101 -138 96 -156 112 -152 133 3 13 0 43 -7 66 -14 54
-42 68 -105 54 -43 -10 -45 -9 -45 13 0 13 7 24 18 27 39 10 155 6 222 -8z
m-130 -85 c26 -26 26 -72 -1 -128 -28 -57 -75 -80 -129 -62 -20 6 -42 11 -50
10 -59 -9 -100 30 -100 92 0 80 52 113 109 69 24 -18 25 -18 64 10 47 34 79
37 107 9z m-308 -65 c-7 -87 40 -145 116 -145 23 0 52 -4 65 -9 39 -15 92 5
125 45 l30 36 142 -98 c176 -121 204 -146 197 -177 -3 -12 -18 -95 -33 -184
-15 -88 -33 -169 -40 -178 -7 -9 -39 -23 -71 -32 -32 -8 -121 -44 -197 -80
-94 -44 -159 -68 -200 -74 -34 -5 -241 -13 -461 -19 -220 -5 -589 -21 -820
-35 -471 -28 -539 -30 -530 -15 4 6 93 69 198 139 216 144 322 225 547 416
293 249 394 321 541 382 113 47 218 71 309 72 l85 1 -3 -45z m1128 -630 c36
-26 69 -52 75 -57 5 -4 -21 -8 -57 -8 l-66 0 -16 43 c-28 77 -31 93 -15 81 8
-6 43 -32 79 -59z m174 -135 c88 -11 161 -21 163 -23 2 -2 -2 -18 -8 -36 -9
-25 -15 -30 -28 -25 -9 4 -57 9 -108 9 -82 2 -97 5 -132 28 -38 25 -71 67 -54
67 4 0 80 -9 167 -20z m-2884 -69 c0 -4 -30 -26 -67 -47 -99 -58 -143 -103
-143 -147 0 -42 32 -71 115 -107 69 -29 115 -62 115 -82 0 -35 -85 -94 -177
-122 -284 -87 -462 -163 -581 -246 -107 -75 -125 -134 -72 -233 37 -70 40
-132 9 -187 -25 -43 -102 -88 -459 -266 -107 -54 -212 -108 -233 -121 l-38
-24 -77 47 c-141 88 -461 339 -448 351 2 2 71 21 152 42 308 79 441 129 466
173 7 13 13 53 13 90 0 63 2 69 34 102 19 20 73 56 120 80 165 85 339 134 669
191 302 51 362 72 362 128 0 36 -23 59 -91 92 -72 34 -83 54 -47 92 30 33 131
105 188 133 34 18 163 65 188 70 1 0 2 -4 2 -9z m2122 -6 c1 -5 -40 -30 -89
-55 -50 -25 -112 -64 -137 -87 -25 -24 -83 -60 -128 -81 -75 -35 -129 -75
-117 -87 5 -4 171 10 237 21 18 3 50 20 70 38 71 62 112 89 112 74 0 -37 -70
-104 -169 -163 -140 -83 -137 -102 11 -64 44 11 87 19 96 17 20 -4 -66 -98
-143 -158 -53 -41 -82 -76 -72 -86 2 -3 30 6 62 20 31 14 55 22 53 18 -2 -4
-20 -40 -41 -79 -74 -145 -116 -273 -88 -273 13 0 41 41 41 60 0 34 62 141
142 247 47 62 91 126 98 143 12 29 14 30 31 14 26 -23 38 -11 94 91 41 75 92
135 115 135 20 0 32 -45 27 -94 -8 -75 -43 -159 -90 -217 -79 -95 -87 -110
-87 -155 0 -24 4 -44 9 -44 5 0 51 44 103 99 97 101 147 173 169 249 l12 42
21 -36 c26 -46 69 -79 91 -70 19 7 19 4 -14 121 -17 60 -29 195 -17 195 2 0
37 -15 77 -34 123 -56 137 -86 134 -275 l-3 -114 -60 -86 c-114 -161 -195
-256 -361 -421 -228 -227 -435 -384 -699 -530 -359 -199 -780 -332 -1190 -375
-160 -17 -494 -20 -643 -5 -394 40 -781 153 -1133 332 -140 72 -143 61 44 150
69 33 136 68 150 78 35 25 571 291 640 318 30 12 159 51 285 88 509 145 758
248 958 393 143 105 237 155 560 302 161 72 319 145 352 162 87 44 458 196
473 194 7 -1 14 -6 14 -12z m868 -100 c0 -2 -5 -15 -11 -29 -12 -25 -14 -25
-88 -20 -111 8 -115 14 -26 34 84 18 125 23 125 15z m-1411 -29 c-2 -2 -26
-13 -54 -24 -96 -38 -508 -233 -588 -279 -45 -25 -136 -85 -202 -133 -254
-184 -543 -313 -955 -425 -69 -19 -199 -59 -290 -90 -90 -30 -168 -55 -172
-55 -3 0 -4 15 -1 34 8 52 -3 96 -42 156 -63 98 -48 130 110 222 101 59 196
96 376 148 165 48 229 77 282 128 40 39 47 73 23 108 -8 11 -58 40 -111 64
-53 24 -92 47 -88 51 16 14 704 80 963 92 107 5 754 7 749 3z m-2027 -86 c-6
-40 9 -55 89 -96 37 -18 70 -38 74 -43 9 -16 -30 -49 -72 -60 -21 -5 -126 -21
-233 -36 -354 -47 -533 -92 -717 -181 -157 -77 -212 -142 -198 -238 9 -60 0
-83 -43 -105 -46 -23 -233 -72 -428 -111 l-148 -30 -54 52 c-128 126 -311 358
-417 528 -76 124 -159 280 -151 287 5 5 1889 58 2197 62 l106 1 -5 -30z m3368
-34 c0 -14 -18 -42 -23 -36 -2 3 -7 17 -11 32 -5 23 -3 25 14 21 11 -3 20 -10
20 -17z"/>
<path d="M283 3048 c-53 -14 -50 -29 4 -21 26 4 80 7 118 6 284 -5 415 -10
445 -16 34 -7 34 -7 -9 14 -41 20 -63 21 -285 23 -133 1 -256 -2 -273 -6z"/>
<path d="M1835 2384 c-102 -23 -122 -25 -278 -19 -164 6 -238 -2 -253 -26 -4
-8 1 -8 17 -3 13 5 116 8 229 6 182 -2 216 0 295 19 97 23 215 29 310 15 56
-8 59 -7 44 9 -13 13 -40 17 -135 20 -100 4 -137 0 -229 -21z"/>
<path d="M2620 3301 c-14 -4 -20 -9 -15 -13 14 -8 195 -21 195 -13 0 3 -16 13
-35 21 -36 15 -102 17 -145 5z"/>
<path d="M2960 2739 c-62 -19 -52 -26 29 -21 59 3 94 0 133 -13 42 -13 70 -16
137 -10 105 9 90 20 -45 35 -163 18 -217 20 -254 9z"/>
<path d="M4519 2846 c-2 -2 -37 -9 -78 -15 -45 -6 -80 -16 -90 -27 -15 -15
-14 -16 14 -9 17 5 89 11 160 14 l130 6 -32 18 c-29 15 -93 23 -104 13z"/>
<path d="M4491 2425 c-36 -8 -69 -19 -75 -25 -13 -13 -8 -13 99 6 57 10 119
14 170 11 59 -4 73 -2 55 5 -43 17 -180 19 -249 3z"/>
</g>
</svg>
