<svg id="Layer_1" data-name="Layer 1" xmlns="http://www.w3.org/2000/svg" viewBox="0 0 648.54 648.54"><title>Logo vektor</title><g id="_Group_" data-name="&lt;Group&gt;"><path id="_Path_" data-name="&lt;Path&gt;" d="M258,512.17c6.56,0.23,13.5.62,19.67-1.17,12.12-3.51,24-4.82,36.32-1.75,1,0.25,2.22-.24,3.33-0.39-0.62-1.39-1.24-2-1.94-2.08-10.54-1.83-21-2.68-31.58.29a78.45,78.45,0,0,1-18.43,3.16c-8.77.28-17.58-.68-26.38-0.94-5.1-.15-9.92.93-13.93,4.41C236,510.29,247,511.78,258,512.17Z" transform="translate(-96.54 -97.54)"/><path id="_Path_2" data-name="&lt;Path&gt;" d="M139.18,442.43c6.08,0.06,12.22,2.26,18.19,1.78,8.6-.7,17-2.31,25.36,1.26,0.37,0.16.93-.15,2-0.36A28.15,28.15,0,0,0,165,440.88c-5.63.78-11.44,0.28-17.17,0.2-6.68-.1-13.36-0.63-20-0.4-2.53.09-5,1.8-7.49,2.77l0.52,0.6C127,443.46,133.07,442.37,139.18,442.43Z" transform="translate(-96.54 -97.54)"/><path id="_Path_3" data-name="&lt;Path&gt;" d="M391.61,474.61c5.08-.07,10.18-0.17,15.23.25,2.19,0.18,4.29,2.36,6.42,2.35,5.72,0,11.44-.76,17.16-1.21l0.52-.75c-3.87-.64-7.73-1.38-11.63-1.88s-8.09-.31-11.95-1.24c-7.54-1.83-14.48-.44-21.29,2.73C388,475.18,389.79,474.64,391.61,474.61Z" transform="translate(-96.54 -97.54)"/><path id="_Path_4" data-name="&lt;Path&gt;" d="M354.89,417.63l22.74,2C373.27,414.79,361.94,413.69,354.89,417.63Z" transform="translate(-96.54 -97.54)"/><path id="_Path_5" data-name="&lt;Path&gt;" d="M557.4,465.35l4.3,0.16a14.27,14.27,0,0,0-4-3.19c-5.05-2.71-9.67,0-15.36.59-4.3.42-5.57,0-10.14,2.05-0.51.23-2.39,1.83-2.28,2.38,0.9-.17,1.8-0.36,2.71-0.5,4.06-.65,8.1-1.6,12.18-1.84S553.2,465.21,557.4,465.35Z" transform="translate(-96.54 -97.54)"/><path id="_Path_6" data-name="&lt;Path&gt;" d="M535.88,507.76c13-2,25.36-6.09,38.11-1.61C568.23,500.32,541.19,501.65,535.88,507.76Z" transform="translate(-96.54 -97.54)"/><path id="_Compound_Path_" data-name="&lt;Compound Path&gt;" d="M650.11,192.52A324.27,324.27,0,0,0,191.52,651.11,324.27,324.27,0,0,0,650.11,192.52Zm47.16,382.13c-0.11-.34-0.23-0.68-0.35-1-0.74-2-2.23-4.45-4.34-4l0.5,6.73c-1.35.14-1.84-1.71-1.91-3.07a21.44,21.44,0,0,0-3.33-11.09c-3.34-4.89-9.05-7.47-14.35-10.11s-10.83-5.95-13.08-11.43c-2.84,2.63-2.94,7.15-1.87,10.87s4.61,19.28,4.56,23.7c0,1.41-2.71-4.89-3.81-11.87a17.49,17.49,0,0,0-1.94-4.5,16.37,16.37,0,0,0-2.57-4c0.21,0.21-.3,2.3-0.35,2.65-0.13,1-.25,1.91-0.38,2.86q-0.35,2.59-.78,5.16a83.59,83.59,0,0,1-2.51,10.89c-2.18,7-5.7,13.74-11.11,18.68,7.17-9.85,11.47-22.47,8.72-34.34-0.44-1.92-1.32-4.06-3.2-4.62a5.41,5.41,0,0,0-3.62.55c-8.3,3.62-13.35,12-17.29,20.16-0.92-1.15-.24-2.69-1.16-3.84-21.25,28.56-13.94,12.81-9,5.88,4.52-6.94,11.44-17,17.39-21.52-4.2,1-20.39,12.58-23.83,13.7,13.69-9.81,18.09-18.31,21-21.39a18.88,18.88,0,0,1,10.82-6.1,3.68,3.68,0,0,0-2.33-2.52c-2.38-.9-4.81.36-6.87,1.47a189.8,189.8,0,0,0-18.15,10.65c-5.65,3.9-17.72,9-24.56,9.59a66.25,66.25,0,0,0,6.75-2.69c1.38-.81,3.6-1.78,4.36-2.52a40.22,40.22,0,0,1,5.33-4.48,101,101,0,0,1,16.12-9.19c5.41-2.36,8.81-6,11.46-11.12,6.55-12.71,8.37-26.53,10.08-40.38,1.89-15.34-.5-30.47-2.79-45.59-1-6.55-5-9.65-11.2-11-4.78-1-9.43-2.66-14.3-4.08l1.16-4.92a75.33,75.33,0,0,1-7.25-3.57c-6.83-4.32-14.5-2.56-21.82-3.21-5.13-.46-10.31-0.27-15.42-0.81-1.92-.2-3.72-1.64-4.31-1.92,5.64-1.33,12-2.66,18.27-4.36,2.2-.59,4.76-1.42,7-0.53,2.63,1,3.24,4.88,6.58,4.38a0.41,0.41,0,0,0,.2-0.07,0.42,0.42,0,0,0,.12-0.27c0.41-2.3-.79-4.12-2.16-5.83-0.72-.91-1.46-1.82-2.14-2.76a35.56,35.56,0,0,0-1.95-3.09c6.37,7,14.77,6.55,22.82,7,8.54,0.46,14.48,5.62,20.59,10.64a13,13,0,0,0,2.83,1.36c0.21-1.18,1-2.78.54-3.47-2.06-2.9-4.11-6-6.88-8.17C623.33,405.85,614.8,400,606.44,394c2.2-.79,7.87,6.2,7.25-2.3l6.41,0.64c-0.36,0-1.46-5.67-1.64-6.37,4,3,8,5.84,11.75,9,4.62,3.87,9,8,9.34,14.69,0.06,1,1.6,2,2.45,3,0.57-1.23,1.65-2.46,1.63-3.68-0.18-10-4.9-18.43-9.52-26.93-1.56-2.86-2.27-6.18-3.28-9.32s0.57-4.28,3.41-4.61c3.49-.4,3,1.8,3.12,4.11a18,18,0,0,0,1.52,6.7c1.19,2.54,3.45,4.6,4.48,7.17,0.94,2.34.86,5.08,1.71,8,4-7.52,11.59-10.31,18.62-14.23-2.3,2.84-4.21,6.16-7,8.44-7.78,6.42-9.2,13.1-4.27,21.76,1.73,3.05,3.32,6.14,1.36,10.09-0.84,1.69.35,4.38,0.61,6.62l1.68,0.2a34.9,34.9,0,0,1,1.85-3.59c3.17-4.78,5.55-10.58,9.82-14,7.46-6,10.91-13.06,10.78-22.36a16.44,16.44,0,0,1,1.69-7.13c0.41,4,.77,8,1.29,12.05a2.39,2.39,0,0,0,1.38,1.72,2.54,2.54,0,0,0,2-1c6.85-9,13.63-18,20.46-26.95a13.31,13.31,0,0,0,1.36,1.84,3,3,0,0,0,1.22.93c1.37,0.45,3.06-1.73,3.82-2.61,3.25-3.76,6.16-7.85,9.57-11.45,1.2-1.27,3.5-1.51,5.29-2.21l1,1.63L716.29,368.2l0.42,1.56,15.21-2.42c0.06,0.32.1,0.64,0.15,1-4.05,1.6-8,3.43-12.24,4.4-11.56,2.69-17.42,11.91-24.9,19.73,2.34,2.8,4.64,3.78,6.71,1.33,4.39-5.21,10.41-5,16.87-5.61A8.38,8.38,0,0,1,717,389.5c-0.59.28-1.29,0.31-1.92,0.54-8.58,3.15-17.26,6.63-23.12,13.78a37,37,0,0,1-8.89,7.69c-1.59,1-3.36,1.76-4.93,2.76s-2.29,2.88-2.87,4.65c5.52-1,11.22-3.94,16.86-3.87,17.22,0.15,31.46-5.85,43.56-16.75,0.11,1.51.19,3,.28,4.55l-0.72.74c-1.94,2-3.19,4.61-4.75,6.95,1.94,0,3.9.21,5.84,0.24q0.12,3.6.16,7.2l-1,.46a5.43,5.43,0,0,1-2.64.2,36.71,36.71,0,0,0-22.45,4.64c-5.61,3.13-12.8,3.33-18.7,6.08s-11.2,7-16.59,10.79a7,7,0,0,0-2.66,4.11c-1.41,8.49-2.84,17-3.67,25.55a278.35,278.35,0,0,0-1.58,28.34c0,5.53.68,11.53,2.92,16.47a76.78,76.78,0,0,0,11.89,18.15c5.93,6.87,13.91,9.48,23.2,6.87-3.67,3.19-7.24,5.12-12.39,4.08-2.93-.59-6.31,1-9.87,1.7,2.08,6.7,7.77,7.63,13,9.83l-4,3.67a20.79,20.79,0,0,1,6.3,14ZM338.09,627.78c-1.17-1.46-2.2-6.22-1.71-8.11,1.2-4.67,7.23-7.06,12.68-10.63,13.29-8.71,29.62-13.31,45.16-17.49,8.09-2.17,15.72-4.86,22-10.26,6.75-5.85,5.55-12.23-2.75-15.55-3.69-1.48-7.25-3.29-10.87-5a31.77,31.77,0,0,1-5.21-2.83c57.85-7.43,115.66-11.66,174.07-9.59-4.77,1.94-8.59,3.29-12.25,5-18.16,8.51-36.69,16.36-54.25,26C492.6,586,482.06,595.93,470,603.1a272.45,272.45,0,0,1-35.36,17.12c-11.63,4.79-23.76,8.4-35.76,12.25-5.84,1.87-12,2.86-17.81,4.7-12.31,3.86-24.53,8-38,12.45C346.76,640.79,343.26,634.22,338.09,627.78Zm-5.84,7.31c5.26,7.24,2.19,19-5.71,23.05C313.19,664.92,300,672,286.68,678.82c-7.51,3.85-15.47,6.94-22.62,11.36-1.61,1-3.2,2-4.78,3.1a317,317,0,0,1-53.37-40.13c17.49-4.1,34.94-8.43,51.89-14.36,5.51-1.93,11.84-5.11,12.42-10.92,0.26-2.59-.76-5.15-0.65-7.75,0.23-5.48,5.22-9.43,9.93-12.23a131.88,131.88,0,0,1,24.38-11.11,218,218,0,0,1,26-7c8.89-1.88,17.86-3.38,26.83-4.86,4.49-.74,9-1.47,13.46-2.24,1.73-.3,13-2.58,15.86-5.16a7.28,7.28,0,0,0,2.52-3.76c0.67-3.33-1.94-6.18-4.6-7.73l-0.76-.42c-1.17-.59-3.57-1.82-4.73-2.29-3.17-1.29-4.55-1-6.35-5-0.74-1.65,3.24-4.89,4.92-6.23,8.07-6.44,16.19-11.9,26.38-15,3.75-1.12,6.19-2.44,9.33-2.54l0.44,1c-4.1,2.36-8.36,4.5-12.26,7.16-3.25,2.22-6.83,4.56-8.87,7.74a7.49,7.49,0,0,0,2.29,10.25c3.87,2.77,7.51,4.12,12.37,6.26,2.25,1,7.75,4.24,7.91,6,0.21,2.29-3.77,5.63-5.5,7-6.42,5.08-12.87,5.61-19.41,7.77-16.38,5.42-32.89,10.46-47.57,19.91-2.24,1.44-4.46,2.92-6.59,4.51C327.4,618.21,326.19,626.75,332.25,635.09ZM152.52,352.33c-2.89-1.21-6.5-2.69-10-4.37-8.08-3.86-16-8-24.11-11.83a14.05,14.05,0,0,1-1.4-.75,311.68,311.68,0,0,1,26-63.94l34,43.51A112.11,112.11,0,0,0,152.52,352.33Zm-10.11,2.91c2.54,1.25,5.74,2.49,7.51,4.34a111.46,111.46,0,0,0-4.27,19,4.34,4.34,0,0,1-1.24,1.05,4.27,4.27,0,0,1-.36.33c-3.7,4.33-9.1,7.13-13.53,10.66-8.13,6.48-16.69,12.41-25.21,18.4a316.72,316.72,0,0,1,9.82-66.83C124.91,346.8,133.71,350.94,142.42,355.24ZM256.86,290a103.81,103.81,0,0,1,103.45,96.2l-0.08,0a51.62,51.62,0,0,0-6.91-4.31c-8.08-3.76-16.08-8-24.54-10.58-8.83-2.74-17.38,1.53-25.71,4.08a132.7,132.7,0,0,0-36.56,17.7c-7.93,5.46-8.41,5.75-15.88-.26a93.54,93.54,0,0,0-46.91-20.33c-7-1-13.75-3.61-20.68-5.16a28.93,28.93,0,0,0-20.74,3.19c-1.85,1-3.87,1.74-6.73,3a4.44,4.44,0,0,1-.5.22A103.93,103.93,0,0,1,256.86,290ZM221.3,272.5q-7.56-31-15.25-61.91c-1.35-5.41-2.88-10.77-4.32-16.16a315.15,315.15,0,0,1,93.13-62.35c-0.26,1.52-.53,3-0.81,4.55-3.76,20.07-7.88,40.07-11.41,60.17-2.27,12.93-3.42,26-5.62,39-2.63,15.48-5.66,30.9-8.74,46.3a112.84,112.84,0,0,0-11.43-.58,111.69,111.69,0,0,0-32.35,4.78C223.51,281.87,222.44,277.18,221.3,272.5ZM436.24,106.42a312.94,312.94,0,0,1,172.32,61.43,42,42,0,0,0-6.37,3.2c-5.58,3.46-9.81,9.26-14.22,14.38-2,2.33-3.5,3-6.66,2.52-16.91-2.65-31.16,3.51-43.21,14.82-6.13,5.75-11.23,12.61-16.79,19a5.86,5.86,0,0,0-1.56,1.92c-2.32,9.67-11,12.53-18.11,17.09-10.21,6.57-20.46,13.06-30.68,19.61-17.76,11.38-35.36,23-53.3,34.09-20.62,12.73-41.51,25-62.33,37.41-1.36.81-2.52,1.49-3.53,2.05a113,113,0,0,0-28.44-30.52c3.94-6.76,8.59-14.68,13.06-22.73,8.95-16.14,17.58-32.45,26.54-48.59,8.87-16,17.77-31.94,27-47.7,13.27-22.62,26.91-45,40.3-67.57C432.31,113.36,434.29,109.89,436.24,106.42ZM592.76,440.28c-1,.29-2.37,1.35-3,1.25,0.16-1.4.36-4.88,0.44-5.63,7.45,0,15-1.17,21.91.32,7.47,1.6,15.68,3.23,20.79,10.24a7.57,7.57,0,0,1,1.41,3.08c1.37,8.48,2.64,17,3.94,25.47l-1.76,1.08c-9.76-6.81-31-21.73-31-21.73a18,18,0,0,0,.43-2.59C606.17,441.2,602.72,437.49,592.76,440.28Zm3.68,23.45c-2.26,1.27-6,2.15-8.53.41a5.14,5.14,0,0,0-4.19-.75c-3,1.19-5-.16-7.54-1.94-4-2.79-4.42-10.32-1.77-13.71,2.15-2.75,4.73-3.87,8.61-1.33a15.12,15.12,0,0,1,3.88,3c5.27-5.61,9.77-7.58,13.58-5.08C605.9,447.88,602.22,460.49,596.44,463.73Zm5.06-38.57c-6.94,1.74-13.83,3.78-20.85,5.1-5.1,1-9.5-1.89-14.36,1.18,1.18,0.62,2,1.81,3.2,2.35a6.71,6.71,0,0,0,2.41.44c4.34,0.23,8.67,0,13,0L584.84,442c-2.11,0-3-1.4-5.12-1.58a6.42,6.42,0,0,0-4.42,1.19c-0.71.5-1.65,1.23-1.65,1.23s-7.51-.46-10.29-0.76c-10.44-1.12-20.66,1.57-30.21,6.28-10.85,5.35-22.27,9.66-31.61,17.76-0.88.76-3.53,0.44-4.79-.32-14.37-8.65-29.49-16.35-42.7-26.53-19.74-15.21-43.12-23.55-63.89-36.64-5.86-3.69-11.62-7.52-18.37-11.9,9.37-.75,17.73-1.4,26.08-2.11,5-.42,9.92-1,14.89-1.41,6.12-.46,12.25-0.69,18.37-1.13q11.44-.83,22.86-1.86c11.39-1,22.76-2.21,34.16-3.12,1.24-.1,3.39.82,3.76,1.79,4,10.35,12.21,16.62,21,22.45,9.17,6.06,19.39,9.52,29.93,12,3.72,0.87,7.87-.24,11.7.35a33.24,33.24,0,0,1,10.21,3.39c7.77,4.08,15.89,4.16,24.29,3.33,4.17-.41,8.42-0.07,12.63-0.07ZM488.94,373.8c-3.76.62-7.76,1.63-11.8,1.88-13.57.84-27.18,1-40.71,2.2-11,1-22,3.31-33,4.46s-21.85,1.62-32.8,2.15h0a5.61,5.61,0,0,1-.84.07h-0.08a5.34,5.34,0,0,1-.91.09h0a111.35,111.35,0,0,0-13.13-44.28c54.23-28.94,103.7-65,156.06-97.07-6.9,19.74-.93,37.64,6.51,55.7C496,318.52,484.37,342.65,488.94,373.8ZM268.29,400.51a139.72,139.72,0,0,1,43.89-22.1c7.86-2.28,16.45-2.83,24.28,1.39,20,10.78,40.09,21.39,59.87,32.55,15.6,8.8,30.84,18.26,46.15,27.57,17.13,10.42,34.17,21,52.25,32.16-4.22,3.59-7.68,6.66-11.27,9.57-16,13-31.73,26.29-48.15,38.71-4.9,3.71-11.68,5-17.68,7.14-0.85.3-2.45-.6-3.32-1.38-7-6.29-13.82-12.86-21-19-17.58-15.16-35.94-29.48-52.78-45.43-11.94-11.31-25.09-20.55-38.6-29.59-6.46-4.33-12.34-9.54-18.47-14.36s-12-9.45-18.34-14.46C266.41,402.17,267.29,401.25,268.29,400.51Zm288.5,143c-16.29.47-32.63-.3-48.91,0.38-26.6,1.11-53.18,3-79.76,4.48-8.54.48-17.08,0.83-25.62,1.24l-0.25-1.28c0.63-.51,1.23-1.07,1.9-1.52,8.85-5.95,17.61-12,26.59-17.79,26.73-17.13,49-39.79,74.07-59a115.25,115.25,0,0,1,49.44-22.37c4.41-.83,12.11-0.12,16.85-0.12-0.21,0-1.91,4.39-.88,9.12a12.06,12.06,0,0,0,4.11,7c6.51,5.23,7.87,2.17,10.9,2.4s3.94,2.81,8.85,1.4c3.65-1.05,5.78-2.11,9.54-8.5,6.26,4.25,12.88,8.8,19,13,4.5,3.11,9,6.2,13.35,9.54,1.07,0.83,2.15,2.75,2,4-1.89,11.78-3.91,23.54-6.27,35.23-0.34,1.66-2.47,4-4,4.22-12.86,1.91-23.37,9.41-35,14.2a19.37,19.37,0,0,1-5.13,1.8C577.25,541.88,567,543.2,556.79,543.5Zm41.54-138.82a1.5,1.5,0,0,1,.16-0.46,2.14,2.14,0,0,1,.62-0.71c2-1.46,4.46-2.35,6.57-3.63a1.31,1.31,0,0,1,.53-0.22c0.78-.08,2.26,1.12,2.91,1.49l3.58,2c2.33,1.31,4.69,2.55,7,3.84a0.3,0.3,0,0,1,.17.47l-0.48,1.25a0.39,0.39,0,0,1-.53.31c-3.15-.48-6.29-1.06-9.45-1.52-3.37-.5-6.87-0.72-10.17-1.5a1.8,1.8,0,0,1-.34-0.11A1.15,1.15,0,0,1,598.32,404.68Zm69.35-23.74c1.76-2,4.35-3.38,6.56-5l1,1.43c-0.32,5.11-.56,10.22-1,15.32-0.38,4.69-2.08,8.53-6.45,11.11-3.53,2.09-6.66,4.84-10,7.3-6.13-8.26-5.79-11,1.21-18.6C662.26,389,664.54,384.58,667.67,380.94Zm67.57,11.72C724,404,710.62,411.13,693.34,409.6c11.34-11.9,26.53-16.89,41.21-23.69Q734.93,389.27,735.24,392.66ZM734,381.28c-4.22-.29-8.45-0.45-12.68-0.57-0.93,0-2.52.28-2.71,0.82-1.16,3.28-6,3.9-8.24,1.51a0.75,0.75,0,0,1-.27-0.77,0.79,0.79,0,0,1,.33-0.3c3.31-2,6.6-4.13,10.35-5.17a70.77,70.77,0,0,0,12-4.12Q733.45,377,734,381.28Zm-59.85,126.9,18.32,13.4a127.57,127.57,0,0,1-12.82-.17c-1.11-.11-2.38-2.18-2.92-3.6C675.76,515.23,675.27,512.48,674.16,508.17ZM700,558.29l5,1.46q-1.5,3.09-3.07,6.15C701.32,563.47,700.7,561,700,558.29Zm-5.27-8.05a4.92,4.92,0,0,1-3.75-1.65c2-.31,4-0.67,6-0.91,1.15-.14,2.49.29,3.46-0.15a21.82,21.82,0,0,1,11-2q-1.38,3.24-2.83,6.44A28.81,28.81,0,0,0,694.73,550.23Zm15.62-14.51c-3-1.08-6.84-.56-10.16.05-6,1.12-14.33-3-17.08-9.64l34.4,4.19q-1.34,3.67-2.77,7.3A43.17,43.17,0,0,0,710.35,535.72ZM710.68,524c-11-1.27-18.37-8.59-26-15.48-2.46-2.22-4.53-5.2-7.38-6.59-4.5-2.19-5.2-5.53-4.76-9.74,1.26-12,1.75-24.14,4-35.94,2.62-13.58,10.43-22.91,25.28-25.06A29.06,29.06,0,0,0,714.63,426c5.86-4.4,11.8-4,17.92-2.07,1.34,0.42,2.67.89,4,1.36A316,316,0,0,1,719.38,525Zm17.46-175.14a15.08,15.08,0,0,1-7.55-2.54,3.2,3.2,0,0,0-3,.66,14.65,14.65,0,0,1-13.4,5.21,25.66,25.66,0,0,1-7.53-2.2c-2.27-1.09-4.67-2-7.14-1a0.42,0.42,0,0,0-.26.2,0.43,0.43,0,0,0,0,.29l0.52,1.52a5,5,0,0,0,.67,1.45c0.93,1.23,3.53,1.89,4.88,2.44,2.18,0.9,4.91,2.3,7.31,2.24-2.27,4.8-4,9.85-6.36,14.58a36.31,36.31,0,0,1-4,6.34c-0.52.64-5.81,5.23-5.79,5.34l-1-4.66,7.24-3.88c-1.92-1-2.59-1.72-3-1.59-4.38,1.42-9.5,1.78-13.42-1a2.64,2.64,0,0,0-.92-0.51,2.36,2.36,0,0,0-1.14.12,39.33,39.33,0,0,1-12.55,1.7c-2.61-.13-5.17-1.16-7.75-1.78L652.56,374l6.36,3.13c-4.07,2.11-6.7,4.16-9.63,4.82-4.16.93-4.77-3.12-6.08-5.8-1.11-2.27-1.59-4.55,1.61-5.65,1.92-.66,3.94-1,5.74-2a26.9,26.9,0,0,0,4.93-3.76l-2.62-.47c-2.16-.39-4,0.84-6.15.88a8.69,8.69,0,0,1-6-2.45,4,4,0,0,0-3.55-.16c-5.08,2.56-10.29,1.82-15-.21-3.41-1.48-5.19-.55-8.23,2.8l11.5,4.67L632.58,390l-13.23-8.25c2.06-1.33,4-2.52,4.93-4.93a0.69,0.69,0,0,0,.06-0.44A0.7,0.7,0,0,0,624,376c-3-1.69-6.35-1.24-9.67-1.26a8,8,0,0,0-2.47,0c-5,1.72-9.67,1.83-14.27-1.19-0.55-.36-2,0.62-3,1,0.6,1.18.91,2.75,1.86,3.47,1.72,1.29,3.77,2.08,5.45,3.43,1.93,1.56,5.91,4,5.68,6.49-5.94,4.59-16.11-3.63-14.75-4,0.41-.1,5.88-1.91,6.21-1.65l-2.46-2a2.25,2.25,0,0,0-1.2-.61,8.51,8.51,0,0,0-1.69.42,7.21,7.21,0,0,1-2.17-.12c-1.6-.27-3.11-0.88-4.69-1.21a7.67,7.67,0,0,0-8,2.92,1.69,1.69,0,0,1,1.09,0,40.68,40.68,0,0,1,4.45,1.42,1,1,0,0,0-.2,1.28,8.73,8.73,0,0,0,1.14,1.41c0.59,0.83,1.17,1.67,1.78,2.49a23.37,23.37,0,0,0,3.87,4.32c2.81,2.31,6.57,3.47,10.56,5.46-3.58.74-6.31,1.1-8.92,1.88a17.08,17.08,0,0,1-8.47.44,16.37,16.37,0,0,1-4-1.45c-2.13-1.1-4.37-3-6.92-2.09a0.31,0.31,0,0,0-.19.13,0.32,0.32,0,0,0,0,.21,10,10,0,0,0,.78,2.44c1.39,2.68,4.51,2.82,7,3.87a33.83,33.83,0,0,1,6.53,3.69,29.72,29.72,0,0,1-12.82,5,20.68,20.68,0,0,1-13.62-2.65,6.69,6.69,0,0,0-3.85-.64c-3.94.33-7.87,0.88-12.27,1.4v2.53c-15.92-2.89-28.42-10.89-39.59-22-7.36-7.31-8.69-15.94-9.2-25.38-1.18-22,8-39.68,22.67-55.07,2.56-2.7,6-4.57,9.4-7.1-6.57-8.4-10.94-17.77-12.05-28.07-1.57-14.57-1.14-29.36,6.34-42.31,10.72-18.57,24.35-34.42,47.41-37.64,4.49-.63,9.26.07,13.81,0.75,3.2,0.48,5.2-.1,7.26-2.73,3.36-4.29,6.8-8.75,11-12.09a40.12,40.12,0,0,1,14.55-7.35,321,321,0,0,1,27.71,24.66A313.7,313.7,0,0,1,728.14,348.91ZM427,106.12L317.46,299.31a111.77,111.77,0,0,0-41.23-16.12c0.78-3.47,1.55-7,2.13-10.58,2.89-17.71,5.32-35.49,8.37-53.17,2.26-13.07,5.58-26,7.75-39,2.84-17.13,5.41-34.3,7.92-51.48A315.39,315.39,0,0,1,420.81,106C422.87,106,424.93,106.08,427,106.12ZM196.51,199.59c2.83,10.51,5.61,20.74,8.19,31q7.21,28.77,14,57.64a112.78,112.78,0,0,0-36.1,21.46c-1.28-1.52-2.54-3-3.75-4.57-10.28-13-20.38-26.23-30.8-39.16-0.41-.5-0.78-1-1.13-1.47A317.37,317.37,0,0,1,196.51,199.59ZM105.09,418c12.18-9.35,24.38-18.69,36.94-27.51,7.43-5.22,16-8.78,24-13.17,6-3.27,12.39-1.75,18.52-1.3,16.7,1.23,33.24,4.8,47.37,13.69,19.94,12.53,38.83,26.75,58,40.48,13.91,10,27.81,20,41.22,30.63,11,8.77,21.43,18.37,32,27.77C378.13,502,393,515.53,407.9,529c0.2,0.18,1.79,1.6,2.35,2-12.25,4.07-23.33,7.23-36.09,16.45a10.48,10.48,0,0,1-5.3,2.07c-15.28.5-30.57,0.69-45.85,1.17-26.1.81-52.19,2-78.29,2.6-36.81.9-73.62,2.55-110.45,1.61A314.73,314.73,0,0,1,105,421.82C105,420.55,105.08,419.29,105.09,418Zm31.65,142c77.09-2,155.12-3.9,231.53-5.85a5.93,5.93,0,0,0,.19,7.49,13.85,13.85,0,0,0,5.74,4.22c0.74,0.3,9.75,3.62,9.76,5.69,0,5.95-15.46,7.19-23.62,8.18-29.59,3.58-60,7.82-85.82,22.74a34.14,34.14,0,0,0-9.34,7.22c-2.54,3-4.18,7-3.62,10.93,0.34,2.39,1.46,4.73,1.05,7.11-0.7,4.07-5.29,6-9.25,7.19-17.58,5.19-35.57,8.85-53.58,12.34-0.75-.73-1.51-1.45-2.25-2.19A316.18,316.18,0,0,1,136.75,560ZM644.09,645.1A316.16,316.16,0,0,1,265,696.59a98.87,98.87,0,0,1,22.26-11.34c4.88-1.78,9-5.53,13.65-8.05,5-2.69,10-5.15,15.2-7.44,18.19-8.06,34.84-19.42,54.24-24.91,18.52-5.24,37.17-10.19,55.37-16.4a340.91,340.91,0,0,0,43.14-17.93c9.68-4.87,17.92-12.52,27.17-18.35a200.39,200.39,0,0,1,21.94-11.77c16.23-7.6,32.66-14.78,49-22.23,6.19-2.83,12.13-6.22,18.39-8.86,12.74-5.38,25.62-10.43,38.45-15.61l1.12,2.15c-2.48,1.63-4.76,3.91-7.48,4.75a35.22,35.22,0,0,0-17.3,11c-2.76,3.24-7.74,4.67-11.85,6.65-3,1.43-5.46,1.93-8.6,4.75-1.24,1.11-3,3.6-2.8,4.13,6.11-.59,12.26-1.1,18.35-1.84,2.41-.29,4.68.14,7-0.73a9.59,9.59,0,0,0,3.63-1.95q2.15-2,4.41-3.9a95.13,95.13,0,0,1,9.5-6.95c-1.49,6.24-6.38,11.12-11.72,14.68s-11.29,6.13-16.54,9.81l1.16,2.49,20.21-5L614,575a88.93,88.93,0,0,1-16.88,16.53c-2.67,2-5.74,4.36-5.75,7.69a80.73,80.73,0,0,0,12.47-5.56c-4.89,8.9-9.63,17.93-13.14,27.47-1.14,3.09-2.14,6.51-1,9.62,3.43-1.17,4.28-5.49,5.23-9,4.2-15.56,19.85-25.69,25.24-40.88,0.29,1.94,1.16,4.4,3.11,4.34,1.22,0,2.12-1.12,2.79-2.14,4.7-7.16,7-16.38,14.21-21.07a3.14,3.14,0,0,1,3.16-.33c0.37,0.14,3,3.59,1.25,11.81-2.06,9.06-5.22,15.23-9.55,19.87-2.53,2.71-5.28,5.31-7,8.61s-2.22,7.53,0,10.56l15.62-15.84a47.37,47.37,0,0,0,12.83-24.88,17.08,17.08,0,0,0,7.51,11.32,5.22,5.22,0,0,0,3.72.88,2,2,0,0,0,1.27-.92c0.68-1.12.11-2.55-.43-3.75a52.29,52.29,0,0,1-4.14-27.62c5.92,4.15,14.28,5,18.5,10.89,3.45,4.79,2.92,11.28,2.34,17.16-0.44,4.43-.7,9.25.82,13.3A318.6,318.6,0,0,1,644.09,645.1Z" transform="translate(-96.54 -97.54)"/></g></svg>